<svg id="Capa_1" data-name="Capa 1" xmlns="http://www.w3.org/2000/svg" viewBox="0 0 674.19 461.14"><defs><style>.cls-1,.cls-2,.cls-3,.cls-4{fill:none;}.cls-1,.cls-2,.cls-4{stroke:#000;stroke-miterlimit:10;}.cls-1{stroke-width:26.87px;}.cls-2{stroke-width:2.37px;}.cls-4{stroke-width:2.02px;}.cls-5{fill:#b3b3b3;}.cls-6{fill:#111;}.cls-7{fill:#161616;}</style></defs><title>Togo</title><circle class="cls-1" cx="554.22" cy="336.66" r="104.78"/><path d="M850.58,653.35l0-3.36a102.9,102.9,0,0,0,13.16-1l.47,3.33A106.14,106.14,0,0,1,850.58,653.35ZM837,652.79a134.14,134.14,0,0,1-13.46-1.89l.64-3.3a127.45,127.45,0,0,0,13.12,1.84Zm40.53-3.17-.87-3.24a114.67,114.67,0,0,0,12.56-4.16l1.24,3.13A119.21,119.21,0,0,1,877.53,649.62Zm-67.19-2a118.82,118.82,0,0,1-12.76-4.76l1.36-3.07a116.25,116.25,0,0,0,12.39,4.63Zm92.48-7.94-1.57-3a124.23,124.23,0,0,0,11.37-6.81l1.87,2.79A127.17,127.17,0,0,1,902.82,639.65Zm-117.36-3A112.23,112.23,0,0,1,774.17,629l2-2.66a108.34,108.34,0,0,0,11,7.39Zm139.9-12.15-2.16-2.57a123.8,123.8,0,0,0,9.7-9l2.42,2.34A132.4,132.4,0,0,1,925.36,624.47Zm-161.48-4.42a112.29,112.29,0,0,1-9.12-10.11l2.63-2.1a107.16,107.16,0,0,0,8.85,9.82Zm180.35-15.14-2.65-2.06A119.29,119.29,0,0,0,949.11,592l2.86,1.75A120.69,120.69,0,0,1,944.23,604.91ZM746.91,598.8a117.89,117.89,0,0,1-6.48-12l3-1.42a118.51,118.51,0,0,0,6.3,11.64ZM958.4,581.71l-3-1.41A107.73,107.73,0,0,0,960.16,568l3.2,1A113.72,113.72,0,0,1,958.4,581.71Zm-223-7.53a125.71,125.71,0,0,1-3.65-13.11l3.28-.73a123.23,123.23,0,0,0,3.55,12.76Zm231.37-18.37-3.3-.62A105.46,105.46,0,0,0,965,542.08l3.35.2A106.57,106.57,0,0,1,966.73,555.81Zm-237.25-8.16a135.78,135.78,0,0,1-.85-13.57l3.36,0a129.07,129.07,0,0,0,.83,13.23Zm239.09-11.51h-3.36c0-4.47-.2-8.93-.6-13.25l3.34-.31C968.36,527,968.57,531.57,968.57,536.14Zm-236-15.32-3.34-.34A118,118,0,0,1,731.37,507l3.28.73A115.64,115.64,0,0,0,732.55,520.82Zm230.18-11.05a122.5,122.5,0,0,0-3.22-12.85l3.21-1A130.41,130.41,0,0,1,966,509.12ZM738.25,495l-3.17-1.1a118.3,118.3,0,0,1,5.17-12.58l3,1.45A119,119,0,0,0,738.25,495Zm216.66-10.51a113.38,113.38,0,0,0-6-11.79l2.9-1.7A118.18,118.18,0,0,1,958,483.16ZM749.66,471.19l-2.85-1.78a122.38,122.38,0,0,1,7.84-11.12l2.64,2.08A117.79,117.79,0,0,0,749.66,471.19Zm191.91-9.47a109.67,109.67,0,0,0-8.62-10l2.41-2.34a113.47,113.47,0,0,1,8.88,10.33Zm-175.5-11.26-2.39-2.36A124.37,124.37,0,0,1,773.79,439l2.11,2.61A119.4,119.4,0,0,0,766.07,450.46Zm157.11-7.66a112.66,112.66,0,0,0-10.77-7.66l1.78-2.85a114.82,114.82,0,0,1,11.1,7.9Zm-136.52-8.91-1.8-2.84a115.66,115.66,0,0,1,11.91-6.61l1.45,3A111.84,111.84,0,0,0,786.66,433.89Zm114.15-5.11a118.78,118.78,0,0,0-12.26-5l1.1-3.18a122.23,122.23,0,0,1,12.6,5.15Zm-90.35-6.33-1.08-3.18a114.79,114.79,0,0,1,13.15-3.6l.68,3.29A110.43,110.43,0,0,0,810.46,422.45Zm65.36-2.33c-4.26-1-8.65-1.75-13.05-2.31l.41-3.33a133.74,133.74,0,0,1,13.39,2.37Zm-39.52-3-.27-3.35c2.29-.18,4.61-.3,6.9-.33s4.49,0,6.7,0l-.09,3.36c-2.17-.06-4.36-.08-6.56,0S838.51,416.9,836.3,417.08Z" transform="translate(-294.38 -196.72)"/><circle class="cls-2" cx="554.22" cy="338.91" r="81.12"/><circle cx="554.22" cy="338.91" r="20.28"/><line class="cls-3" x1="551.96" y1="257.79" x2="551.96" y2="420.03"/><line class="cls-3" x1="473.1" y1="338.91" x2="637.59" y2="338.91"/><line class="cls-4" x1="531.68" y1="260.04" x2="551.96" y2="325.39"/><line class="cls-2" x1="513.66" y1="269.06" x2="545.2" y2="325.39"/><line class="cls-2" x1="497.88" y1="282.58" x2="547.46" y2="332.15"/><line class="cls-2" x1="484.37" y1="298.35" x2="542.95" y2="332.15"/><line class="cls-2" x1="475.35" y1="316.38" x2="540.7" y2="334.4"/><line class="cls-2" x1="476.48" y1="360.32" x2="539.57" y2="340.04"/><line class="cls-2" x1="483.24" y1="378.34" x2="544.08" y2="342.29"/><line class="cls-2" x1="494.5" y1="394.12" x2="541.82" y2="349.05"/><line class="cls-2" x1="512.53" y1="405.38" x2="544.08" y2="351.3"/><line class="cls-2" x1="530.56" y1="414.39" x2="548.58" y2="355.81"/><line class="cls-2" x1="557.6" y1="353.56" x2="573.37" y2="418.9"/><line class="cls-2" x1="562.1" y1="351.3" x2="593.65" y2="409.89"/><line class="cls-2" x1="566.61" y1="349.05" x2="611.68" y2="396.37"/><line class="cls-2" x1="568.86" y1="344.54" x2="625.2" y2="380.6"/><line class="cls-2" x1="634.21" y1="360.32" x2="568.86" y2="342.29"/><line class="cls-2" x1="631.96" y1="315.25" x2="566.61" y2="335.53"/><line class="cls-2" x1="622.94" y1="297.22" x2="568.86" y2="328.77"/><line class="cls-2" x1="609.42" y1="281.45" x2="562.1" y2="331.02"/><line class="cls-2" x1="593.65" y1="267.93" x2="557.6" y2="328.77"/><line class="cls-2" x1="573.37" y1="258.92" x2="555.34" y2="331.02"/><line class="cls-2" x1="553.09" y1="256.66" x2="553.09" y2="421.15"/><line class="cls-2" x1="471.97" y1="337.78" x2="636.46" y2="337.78"/><path class="cls-5" d="M848.39,431.37a68,68,0,0,0-35.85,4.29,81.8,81.8,0,0,0-29.38,20.93A112.83,112.83,0,0,0,763.29,487a144.45,144.45,0,0,0-10.62,35,124.88,124.88,0,0,1,9.2-35.61,110.22,110.22,0,0,1,19.81-31.15c8.43-9,18.66-16.62,30.3-21a67.1,67.1,0,0,1,18-4.1A63.93,63.93,0,0,1,848.39,431.37Z" transform="translate(-294.38 -196.72)"/><circle class="cls-1" cx="203.05" cy="341.16" r="104.78"/><path d="M499.41,657.85l0-3.35a102.92,102.92,0,0,0,13.17-1l.46,3.32A102.52,102.52,0,0,1,499.41,657.85Zm-13.57-.55a134.75,134.75,0,0,1-13.47-1.9l.64-3.29c4.27.82,8.69,1.44,13.13,1.84Zm40.53-3.17-.87-3.25a115.31,115.31,0,0,0,12.56-4.15l1.23,3.12A119.85,119.85,0,0,1,526.37,654.13Zm-67.2-2a120,120,0,0,1-12.75-4.76l1.35-3.08a116.42,116.42,0,0,0,12.4,4.63Zm92.49-7.94-1.57-3a126.37,126.37,0,0,0,11.36-6.81l1.88,2.79A130.87,130.87,0,0,1,551.66,644.16Zm-117.36-3A112.27,112.27,0,0,1,423,633.5l2.05-2.66A109.89,109.89,0,0,0,436,638.23ZM574.2,629,572,626.41a125.73,125.73,0,0,0,9.69-9l2.42,2.34A130.36,130.36,0,0,1,574.2,629Zm-161.48-4.42a110.66,110.66,0,0,1-9.12-10.11l2.62-2.1a109.86,109.86,0,0,0,8.85,9.82Zm180.35-15.14-2.66-2.06a118.68,118.68,0,0,0,7.53-10.89l2.87,1.75A124,124,0,0,1,593.07,609.42Zm-197.32-6.11a118,118,0,0,1-6.48-12l3-1.43a112.34,112.34,0,0,0,6.3,11.64Zm211.48-17.1-3-1.41A110.64,110.64,0,0,0,609,572.5l3.2,1A111,111,0,0,1,607.23,586.21Zm-223-7.53a126.77,126.77,0,0,1-3.64-13.11l3.28-.72a121.46,121.46,0,0,0,3.55,12.76Zm231.37-18.36-3.3-.62a102,102,0,0,0,1.61-13.11l3.36.2A105,105,0,0,1,615.56,560.32Zm-237.24-8.17a135.58,135.58,0,0,1-.86-13.56l3.36-.05c.06,4.43.34,8.88.83,13.23Zm239.09-11.5h-3.36c0-4.47-.21-8.93-.61-13.26l3.35-.31C617.2,531.51,617.41,536.08,617.41,540.65Zm-236-15.33-3.34-.34a116,116,0,0,1,2.16-13.44l3.28.72A113.78,113.78,0,0,0,381.39,525.32Zm230.18-11.05a125.5,125.5,0,0,0-3.22-12.84l3.21-1a127.31,127.31,0,0,1,3.3,13.2ZM387.09,499.52l-3.18-1.09a121.57,121.57,0,0,1,5.18-12.59l3,1.45A116.45,116.45,0,0,0,387.09,499.52ZM603.75,489a112.47,112.47,0,0,0-6-11.79l2.9-1.7a118.25,118.25,0,0,1,6.18,12.14ZM398.49,475.7l-2.84-1.78a122.53,122.53,0,0,1,7.84-11.13l2.63,2.09A119.76,119.76,0,0,0,398.49,475.7Zm191.91-9.47a106.63,106.63,0,0,0-8.62-10l2.41-2.34a110.73,110.73,0,0,1,8.89,10.33ZM414.91,455l-2.39-2.37a122.72,122.72,0,0,1,10.11-9.12l2.1,2.62A117.49,117.49,0,0,0,414.91,455ZM572,447.31a111.37,111.37,0,0,0-10.76-7.67L563,436.8a115.09,115.09,0,0,1,11.09,7.89Zm-136.52-8.92-1.8-2.84a120.84,120.84,0,0,1,11.92-6.61l1.45,3A117,117,0,0,0,435.49,438.39Zm114.16-5.11a119.64,119.64,0,0,0-12.26-5l1.1-3.18a124.09,124.09,0,0,1,12.6,5.15ZM459.3,427l-1.08-3.18a110.84,110.84,0,0,1,13.15-3.6l.68,3.29A108.45,108.45,0,0,0,459.3,427Zm65.36-2.33a130.51,130.51,0,0,0-13.06-2.31L512,419a131.44,131.44,0,0,1,13.39,2.37Zm-39.52-3.05-.27-3.34c2.29-.19,4.61-.3,6.9-.34.84,0,1.69,0,2.52,0,1.4,0,2.8,0,4.18.06l-.1,3.36c-1.39,0-2.73-.05-4.19-.06l-2.36,0C489.6,421.3,487.35,421.41,485.14,421.58Z" transform="translate(-294.38 -196.72)"/><circle class="cls-2" cx="203.05" cy="343.42" r="81.12"/><circle cx="203.05" cy="343.42" r="20.28"/><line class="cls-3" x1="200.8" y1="262.3" x2="200.8" y2="424.53"/><line class="cls-3" x1="121.93" y1="343.42" x2="286.43" y2="343.42"/><line class="cls-4" x1="180.52" y1="264.55" x2="200.8" y2="329.9"/><line class="cls-2" x1="162.49" y1="273.56" x2="194.04" y2="329.9"/><line class="cls-2" x1="146.72" y1="287.08" x2="196.29" y2="336.66"/><line class="cls-2" x1="133.2" y1="302.86" x2="191.79" y2="336.66"/><line class="cls-2" x1="124.19" y1="320.88" x2="189.53" y2="338.91"/><line class="cls-2" x1="125.31" y1="364.82" x2="188.41" y2="344.54"/><line class="cls-2" x1="132.07" y1="382.85" x2="192.91" y2="346.8"/><line class="cls-2" x1="143.34" y1="398.62" x2="190.66" y2="353.56"/><line class="cls-2" x1="161.37" y1="409.89" x2="192.91" y2="355.81"/><line class="cls-2" x1="179.39" y1="418.9" x2="197.42" y2="360.32"/><line class="cls-2" x1="206.43" y1="358.06" x2="222.21" y2="423.41"/><line class="cls-2" x1="210.94" y1="355.81" x2="242.49" y2="414.39"/><line class="cls-2" x1="215.45" y1="353.56" x2="260.51" y2="400.88"/><line class="cls-2" x1="217.7" y1="349.05" x2="274.03" y2="385.1"/><line class="cls-2" x1="283.05" y1="364.82" x2="217.7" y2="346.8"/><line class="cls-2" x1="280.79" y1="319.76" x2="215.45" y2="340.04"/><line class="cls-2" x1="271.78" y1="301.73" x2="217.7" y2="333.28"/><line class="cls-2" x1="258.26" y1="285.96" x2="210.94" y2="335.53"/><line class="cls-2" x1="242.49" y1="272.44" x2="206.43" y2="333.28"/><line class="cls-2" x1="222.21" y1="263.42" x2="204.18" y2="335.53"/><line class="cls-2" x1="201.93" y1="261.17" x2="201.93" y2="425.66"/><line class="cls-2" x1="120.81" y1="342.29" x2="285.3" y2="342.29"/><path class="cls-5" d="M524.89,432.53a96.21,96.21,0,0,0-82.4,15,118,118,0,0,0-29.9,30.94,137.64,137.64,0,0,0-18,39.34,124.61,124.61,0,0,1,16.76-40.19,116.35,116.35,0,0,1,30-31.74,97.85,97.85,0,0,1,40.28-16.81,92.23,92.23,0,0,1,21.89-.91A94.77,94.77,0,0,1,524.89,432.53Z" transform="translate(-294.38 -196.72)"/><path d="M432.07,200.89q12.81-12.81,10.94,13.75-1.26,10.94-20.32,80.62c-1.25,3.55-5.87,16.54-1.69,16.54,31.45-.83,46.34-3.43,75.3-2.6,30.42,1,62.85,19.5,44.52,20.75L481,334q-32.36,2.19-61.1,4.06-9.06.93-11.56,9.06c-62.09,218.76-68.11,234.49-75.19,260.11s-10.74,38.86-10.94,39.69q-3.75,7.5-15.63-5.93-12.18-14.07-12.18-24.69,0-10,19.22-78.6c12.81-45.73,15.44-37.24,65-187.45q3.12-9.69-3.44-9.38c-20.42,1.46-32.4-.11-34.69-.53-11.67-.83-16.71-2.58-23.37-10.39s-11.32-13.35-6.94-15.64c5.62-2.92,10.7-2.53,25.11-2.53,13,0,33.19,1.25,51.94,0,3.54-.21,8.47-11.74,10.14-15.29q14.07-41.25,23.59-67.65T432.07,200.89Z" transform="translate(-294.38 -196.72)"/><rect x="168.17" y="112.48" width="106.46" height="20.77"/><rect x="160.38" y="107.29" width="46.74" height="33.76" rx="2.94" ry="2.94"/><rect x="265.54" y="108.59" width="9.09" height="31.16" rx="1" ry="1"/><rect x="177.25" y="137.15" width="20.77" height="10.39" rx="1.75" ry="1.75"/><polygon points="250.79 161.42 223.08 150.99 185.51 141.28 186.81 136.25 224.75 146.06 252.09 156.39 250.79 161.42"/><rect x="246.07" y="152.73" width="7.79" height="8.9" rx="1.5" ry="1.5"/><path class="cls-5" d="M363.73,420.68,356.16,445l-7.72,24.29-15.62,48.53L317,566.32l-7.82,24.26-3.85,12.14a103.11,103.11,0,0,0-3.25,12.3,102.27,102.27,0,0,1,2.78-12.43l3.38-12.3,7.28-24.44c5-16.25,10.18-32.43,15.36-48.62s10.6-32.3,16.07-48.39l8.25-24.12Z" transform="translate(-294.38 -196.72)"/><path class="cls-5" d="M363.73,330.62a35.09,35.09,0,0,1,12.36-1c4.11.42,8.59,1.86,11.44,5.45a12.79,12.79,0,0,1,2.49,6.09,21,21,0,0,1-.32,6.39,38.16,38.16,0,0,1-4.64,11.5,61.46,61.46,0,0,0,3.09-11.76c.48-3.91.19-8.05-2.21-11s-6.2-4.42-10.08-5.16a37.44,37.44,0,0,0-6-.61A54.39,54.39,0,0,0,363.73,330.62Z" transform="translate(-294.38 -196.72)"/><path class="cls-6" d="M701.22,494.38H695c-2.24.64,3.32,28.6,4.13,30.39s10.34-2,10.34-2l-8.27-28.37" transform="translate(-294.38 -196.72)"/><polygon class="cls-6" points="371.32 333.69 368.64 338.34 402.71 334.13 404.72 329.5 371.32 333.69"/><path d="M767.66,327q-9,21.78-17.32,48.15t-16.92,54.71q-9.06,28.32-18.95,56.84a539.07,539.07,0,0,1-21.89,53.89A341.6,341.6,0,0,1,666,587.23a151.14,151.14,0,0,1-32.64,35.13q-39.37,29-90.68,15.28-12.24-3.39-35.88-17.15t-26-19.72q-5.85-16.41,11.7-5,17.32,11.13,41.36,14.73t49.5-5q25.72-9.06,50.66-32.87t44.29-67.78q8.08-18.54,16.61-41.16t16.81-45.37a4.27,4.27,0,0,0-.19-3.4q-.76-1.32-3.32,2.06-12,15.56-32.32,45.33t-33.19,29.38q-11.92-.11-24.41-15t-11.72-35.16q1-44.61,21.26-81.74,17.64-33,44.27-50.48,25.17-17,45.43-11.84,18.12,4.84,23.73,26.15,1.51,7.8,4.3,0c2.36-6,4.22-9.77,5.57-11.43q2.55-3.15,10.71,3T767.66,327Zm-82.19-1.84a188.18,188.18,0,0,0-29.39,51.07q-10.83,28.13-14.56,50.38-3.76,22.74-.65,34.46t12.67,1.66q14.82-15,32.24-38.9,15.59-20.76,25.72-37.34,13.26-22,15.6-40.28t-2.4-28.29q-5.22-10.07-15.87-9.29T685.47,325.15Z" transform="translate(-294.38 -196.72)"/><path d="M775.62,478.17S482.26,528.49,473.88,581.5c-9,56.72,147.38,95.69,177.74,14.18,30.47-81.8,0-32.42-47.54,2-27.49,19.92-77.9-4.54-74.4-14.18-2.54-34.74,173-61.46,223.21-64.83C803.9,515.27,775.62,478.17,775.62,478.17Z" transform="translate(-294.38 -196.72)"/><path class="cls-7" d="M864.27,451.25l-.12-1.48s24.74,15,10.78,56.54L851.75,489.1l.38-29.32Z" transform="translate(-294.38 -196.72)"/><path d="M871.81,506.89l-143.24,18c-11.28,2.07-22.62,3.09-24.73-8l-3.15-16.49c-2.11-11.06,4.84-13.39,16.13-15.46L861,450.34c11.28-2.06-4.78,10.16-2.68,21.22l3.15,16.49C863.61,499.11,883.09,504.82,871.81,506.89Z" transform="translate(-294.38 -196.72)"/><path class="cls-5" d="M723.92,494.27a220.65,220.65,0,0,1,26.4-8.06c4.49-1,9-1.82,13.51-2.85s8.9-2.29,13.32-3.57c8.83-2.61,17.78-4.79,26.8-6.66,9-1.71,18.22-3.15,27.47-3.18v.24c-9.07,1.52-18,3.47-27,5.42s-18,3.71-27,5.44c-4.52.88-9,1.85-13.45,3.05s-8.79,2.69-13.19,4Q737.56,491.9,724,494.5Z" transform="translate(-294.38 -196.72)"/><path d="M702.08,491" transform="translate(-294.38 -196.72)"/><path class="cls-5" d="M865.53,461c1.68.22,2.94,1.56,4.05,2.72a21.07,21.07,0,0,1,2.81,4.09,28.49,28.49,0,0,1,3.09,9.4,22.89,22.89,0,0,1-.63,9.94,18.78,18.78,0,0,1-5.19,8.3,25.88,25.88,0,0,0,3.48-17.91,38.06,38.06,0,0,0-2.41-8.94,29.65,29.65,0,0,0-2.07-4.19A8,8,0,0,0,865.53,461Z" transform="translate(-294.38 -196.72)"/><path class="cls-5" d="M617.52,448.8c1.73,4.24,3.63,8.37,5.65,12.41a78,78,0,0,0,7,11.5c2.64,3.54,5.8,6.77,9.69,8.63s8.59,1.61,12.83-.13a17.09,17.09,0,0,1-6.43,2.61,13.79,13.79,0,0,1-7.1-.77c-4.56-1.74-8.08-5.23-10.89-8.92A56.46,56.46,0,0,1,621.5,462,65.63,65.63,0,0,1,617.52,448.8Z" transform="translate(-294.38 -196.72)"/><path class="cls-5" d="M522.45,554.15c-2.55,1.5-5.1,3-7.57,4.58s-5,3.14-7.35,4.83c-4.74,3.41-9.44,6.93-13.28,11.2a24.74,24.74,0,0,0-4.66,7,10.4,10.4,0,0,0-.36,7.84,15.19,15.19,0,0,0,5.21,6.5,32.53,32.53,0,0,0,3.53,2.57c1.24.77,2.54,1.45,3.81,2.23a37.34,37.34,0,0,1-8-3.87,16.64,16.64,0,0,1-6.21-6.73,11.89,11.89,0,0,1,0-9.36,26.11,26.11,0,0,1,5-7.74A65,65,0,0,1,506.54,562,98.14,98.14,0,0,1,522.45,554.15Z" transform="translate(-294.38 -196.72)"/><path class="cls-5" d="M760.12,327.24l-3.32,9.16-3.43,9.1-6.9,18.15-6.84,18.17c-1.16,3-2.22,6.08-3.27,9.14l-1.59,4.59c-.48,1.54-1,3.09-1.51,4.63a146.55,146.55,0,0,1,4.64-18.94c1.85-6.24,4.07-12.35,6.35-18.43s4.77-12.08,7.44-18S757.06,333,760.12,327.24Z" transform="translate(-294.38 -196.72)"/></svg>